<svg xmlns="http://www.w3.org/2000/svg"  viewBox="0 0 100 100" width="50px" height="50px"><circle cx="13" cy="29" r="2" fill="#ee3e54"/><circle cx="77" cy="13" r="1" fill="#f1bc19"/><circle cx="50" cy="50" r="37" fill="#fce0a2"/><circle cx="83" cy="15" r="4" fill="#f1bc19"/><circle cx="87" cy="24" r="2" fill="#ee3e54"/><circle cx="81" cy="76" r="2" fill="#fbcd59"/><circle cx="15" cy="63" r="4" fill="#fbcd59"/><circle cx="25" cy="87" r="2" fill="#ee3e54"/><circle cx="19.5" cy="54.5" r="2.5" fill="#fff"/><circle cx="21" cy="67" r="1" fill="#f1bc19"/><circle cx="80" cy="34" r="1" fill="#fff"/><path fill="#2ebf7a" d="M66.719,73H35.281C31.26,73,28,69.74,28,65.719V34.281C28,30.26,31.26,27,35.281,27h31.438 C70.74,27,74,30.26,74,34.281v31.438C74,69.74,70.74,73,66.719,73z"/><path fill="#77cbd2" d="M28,65.719c0,3.652,2.692,6.668,6.199,7.192L40,65H28V65.719z"/><path fill="#2ebf7a" d="M35.281,73h10.852L52,65H40l-5.801,7.911C34.553,72.964,34.912,73,35.281,73z"/><polygon fill="#ffce00" points="58.133,73 64,65 52,65 46.133,73"/><path fill="#ee3e54" d="M66.719,73c1.763,0,3.379-0.627,4.639-1.669l2.104-2.869C73.806,67.615,74,66.69,74,65.719V65H64 l-5.867,8H66.719z"/><path fill="#472b29" d="M66.719,73.7H35.281c-4.401,0-7.981-3.58-7.981-7.981V34.281c0-4.401,3.58-7.981,7.981-7.981h31.438 c4.401,0,7.981,3.58,7.981,7.981v31.438C74.7,70.12,71.12,73.7,66.719,73.7z M35.281,27.7c-3.629,0-6.581,2.952-6.581,6.581v31.438 c0,3.629,2.952,6.581,6.581,6.581h31.438c3.629,0,6.581-2.952,6.581-6.581V34.281c0-3.629-2.952-6.581-6.581-6.581H35.281z"/><path fill="#fff" d="M63.125,32h-23.25C37.735,32,36,33.735,36,35.875v21.25C36,59.265,37.735,61,39.875,61h8.958 C49.478,61,50,61.522,50,62.167V68l5.507-6.293C55.9,61.258,56.467,61,57.064,61h6.061C65.265,61,67,59.265,67,57.125v-21.25 C67,33.735,65.265,32,63.125,32z"/><path fill="#472b29" d="M36,47.333c-0.138,0-0.25-0.112-0.25-0.25v-5.917c0-0.138,0.112-0.25,0.25-0.25 s0.25,0.112,0.25,0.25v5.917C36.25,47.221,36.138,47.333,36,47.333z"/><g><path fill="#472b29" d="M36,38.667c-0.138,0-0.25-0.112-0.25-0.25v-2.542c0-2.274,1.851-4.125,4.125-4.125H55.75 c0.138,0,0.25,0.112,0.25,0.25s-0.112,0.25-0.25,0.25H39.875c-1.999,0-3.625,1.626-3.625,3.625v2.542 C36.25,38.555,36.138,38.667,36,38.667z"/></g><g><path fill="#472b29" d="M67,49.917c-0.138,0-0.25-0.112-0.25-0.25V35.875c0-1.999-1.626-3.625-3.625-3.625h-3.792 c-0.138,0-0.25-0.112-0.25-0.25s0.112-0.25,0.25-0.25h3.792c2.274,0,4.125,1.851,4.125,4.125v13.792 C67.25,49.805,67.138,49.917,67,49.917z"/></g><g><path fill="#472b29" d="M50,68.25c-0.029,0-0.06-0.005-0.088-0.016c-0.098-0.037-0.162-0.13-0.162-0.234v-5.833 c0-0.506-0.411-0.917-0.917-0.917h-8.958c-2.274,0-4.125-1.851-4.125-4.125V50.5c0-0.138,0.112-0.25,0.25-0.25 s0.25,0.112,0.25,0.25v6.625c0,1.999,1.626,3.625,3.625,3.625h8.958c0.781,0,1.417,0.635,1.417,1.417v5.168l5.068-5.792 c0.44-0.503,1.076-0.792,1.746-0.792h6.061c1.999,0,3.625-1.626,3.625-3.625V53c0-0.138,0.112-0.25,0.25-0.25s0.25,0.112,0.25,0.25 v4.125c0,2.274-1.851,4.125-4.125,4.125h-6.061c-0.525,0-1.024,0.227-1.369,0.621l-5.507,6.293C50.14,68.22,50.07,68.25,50,68.25z"/></g><g><path fill="#2ebf7a" d="M43.025,48C43.016,48.167,43,48.331,43,48.5c0,4.694,3.806,8.5,8.5,8.5s8.5-3.806,8.5-8.5 c0-0.169-0.016-0.333-0.025-0.5H43.025z"/></g><g><ellipse cx="56.5" cy="42" fill="#2ebf7a" rx="2.5" ry="3"/></g><g><path fill="#2ebf7a" d="M46.5,43c0.909,0,1.751,0.183,2.459,0.492C48.981,43.331,49,43.168,49,43c0-1.657-1.119-3-2.5-3 S44,41.343,44,43c0,0.168,0.019,0.331,0.041,0.492C44.749,43.183,45.591,43,46.5,43z"/></g><g><path fill="#472b29" d="M51.5,57.25c-0.891,0-1.77-0.134-2.612-0.397c-0.132-0.041-0.206-0.181-0.164-0.313 c0.041-0.132,0.182-0.207,0.313-0.164c0.795,0.248,1.624,0.374,2.464,0.374c4.549,0,8.25-3.701,8.25-8.25 c0-0.084-0.004-0.167-0.01-0.25H43.26c-0.006,0.083-0.01,0.166-0.01,0.25c0,1.172,0.24,2.303,0.715,3.363 c0.056,0.126,0,0.274-0.126,0.33c-0.125,0.056-0.274,0-0.331-0.126c-0.503-1.124-0.758-2.324-0.758-3.567 c0-0.128,0.009-0.255,0.018-0.381l0.008-0.134c0.008-0.132,0.117-0.235,0.25-0.235h16.949c0.133,0,0.242,0.103,0.25,0.235 l0.008,0.134c0.009,0.126,0.018,0.252,0.018,0.381C60.25,53.325,56.325,57.25,51.5,57.25z"/></g><g><path fill="#472b29" d="M47.368,56.18c-0.041,0-0.083-0.01-0.122-0.031c-1.099-0.613-2.073-1.475-2.817-2.494 c-0.081-0.112-0.057-0.268,0.055-0.349c0.11-0.081,0.268-0.058,0.35,0.054c0.701,0.961,1.62,1.774,2.657,2.352 c0.12,0.067,0.163,0.219,0.097,0.34C47.541,56.134,47.456,56.18,47.368,56.18z"/></g><g><path fill="#472b29" d="M56.5,45.25c-1.517,0-2.75-1.458-2.75-3.25s1.233-3.25,2.75-3.25s2.75,1.458,2.75,3.25 S58.017,45.25,56.5,45.25z M56.5,39.25c-1.24,0-2.25,1.234-2.25,2.75s1.01,2.75,2.25,2.75s2.25-1.234,2.25-2.75 S57.74,39.25,56.5,39.25z"/></g><g><path fill="#472b29" d="M48.959,43.742c-0.034,0-0.068-0.007-0.1-0.021c-1.412-0.616-3.307-0.616-4.719,0 c-0.07,0.032-0.153,0.028-0.223-0.011c-0.068-0.039-0.114-0.107-0.125-0.185C43.771,43.353,43.75,43.18,43.75,43 c0-1.792,1.233-3.25,2.75-3.25s2.75,1.458,2.75,3.25c0,0.18-0.021,0.353-0.043,0.525c-0.011,0.078-0.057,0.146-0.125,0.185 C49.044,43.731,49.001,43.742,48.959,43.742z M46.5,42.75c0.785,0,1.555,0.133,2.245,0.387c0.003-0.045,0.005-0.091,0.005-0.137 c0-1.516-1.01-2.75-2.25-2.75s-2.25,1.234-2.25,2.75c0,0.046,0.002,0.092,0.005,0.137C44.945,42.883,45.715,42.75,46.5,42.75z"/></g></svg>