<?xml version="1.0" standalone="no"?>
<!DOCTYPE svg PUBLIC "-//W3C//DTD SVG 20010904//EN"
 "http://www.w3.org/TR/2001/REC-SVG-20010904/DTD/svg10.dtd">
<svg version="1.0" xmlns="http://www.w3.org/2000/svg"
 width="512.000000pt" height="512.000000pt" viewBox="0 0 512.000000 512.000000"
 preserveAspectRatio="xMidYMid meet">
<metadata>
Created by potrace 1.14, written by Peter Selinger 2001-2017
</metadata>
<g transform="translate(0.000000,512.000000) scale(0.100000,-0.100000)"
fill="#000000" stroke="none">
<path d="M2443 5102 c-48 -17 -85 -41 -140 -89 -14 -13 -45 -23 -80 -27 -321
-38 -706 -182 -1003 -377 -69 -45 -127 -84 -130 -88 -3 -3 -39 -33 -80 -66
-136 -107 -367 -353 -438 -464 -9 -14 -19 -28 -22 -31 -35 -31 -177 -284 -236
-422 -65 -150 -140 -389 -159 -508 -3 -19 -10 -60 -15 -90 -25 -145 -34 -479
-17 -635 9 -87 34 -234 52 -310 88 -369 279 -743 530 -1035 50 -59 206 -212
275 -271 151 -128 343 -254 508 -331 90 -43 92 -50 17 -75 -51 -17 -42 -38 30
-71 89 -42 132 -92 168 -194 8 -23 36 -23 43 -1 21 63 60 126 95 154 l40 32
57 -13 c31 -8 62 -15 67 -16 6 -1 25 -5 44 -9 19 -3 37 -7 40 -9 6 -4 47 -10
201 -31 127 -16 407 -16 550 1 542 65 1040 302 1423 677 222 218 365 414 497
682 58 119 156 380 175 465 26 120 45 224 51 270 3 30 8 69 11 85 9 56 11 420
2 490 -19 147 -31 223 -54 320 -24 104 -77 278 -100 330 -8 17 -26 59 -40 95
-46 111 -123 250 -212 383 -47 71 -91 134 -97 140 -6 7 -33 39 -61 72 -27 33
-63 73 -78 89 -15 16 -26 37 -25 45 4 21 74 67 131 86 26 9 47 23 47 30 0 8
-33 30 -74 49 -85 41 -117 75 -158 164 -15 34 -33 62 -38 62 -5 0 -24 -30 -40
-67 -30 -65 -73 -123 -93 -123 -5 0 -56 34 -113 75 -57 41 -106 75 -108 75 -2
0 -28 16 -58 35 -133 89 -480 237 -648 276 -89 21 -288 58 -313 59 -17 0 -47
16 -79 41 -83 65 -122 81 -213 86 -61 3 -92 -1 -132 -15z"/>
</g>
</svg>
